HIERARCHY
ROOT Hips
{
	OFFSET 0.000000 0.000000 0.000000
	CHANNELS 6 Xposition Yposition Zposition Xrotation Yrotation Zrotation
	JOINT LeftUpLeg_virtual
	{
		OFFSET 0.000000 0.000000 0.000000
		CHANNELS 3 Xrotation Yrotation Zrotation
		JOINT LeftUpLeg
		{
			OFFSET 10.205400 -3.823500 0.155100
			CHANNELS 3 Xrotation Yrotation Zrotation
			JOINT LeftLeg
			{
				OFFSET 0.708757 -12.982077 0.567790
				CHANNELS 3 Xrotation Yrotation Zrotation
				JOINT LeftFoot
				{
					OFFSET -0.708756 -10.717838 -2.184338
					CHANNELS 3 Xrotation Yrotation Zrotation
					JOINT LeftToeBase
					{
						OFFSET 0.108149 -7.191104 7.560241
						CHANNELS 3 Xrotation Yrotation Zrotation
						JOINT LeftToe_End
						{
							OFFSET 0.070230 0.081724 4.490308
							CHANNELS 3 Xrotation Yrotation Zrotation
							End Site
							{
								OFFSET 0 0 0
							}
						}
					}
				}
			}
		}
	}
	JOINT RightUpLeg_virtual
	{
		OFFSET 0.000000 0.000000 0.000000
		CHANNELS 3 Xrotation Yrotation Zrotation
		JOINT RightUpLeg
		{
			OFFSET -10.205400 -3.823500 0.005500
			CHANNELS 3 Xrotation Yrotation Zrotation
			JOINT RightLeg
			{
				OFFSET -0.708756 -12.982134 0.610632
				CHANNELS 3 Xrotation Yrotation Zrotation
				JOINT RightFoot
				{
					OFFSET 0.708754 -10.717769 -1.945823
					CHANNELS 3 Xrotation Yrotation Zrotation
					JOINT RightToeBase
					{
						OFFSET -0.108140 -7.191069 7.372968
						CHANNELS 3 Xrotation Yrotation Zrotation
						JOINT RightToe_End
						{
							OFFSET -0.070227 0.081735 4.479403
							CHANNELS 3 Xrotation Yrotation Zrotation
							End Site
							{
								OFFSET 0 0 0
							}
						}
					}
				}
			}
		}
	}
	JOINT Spine_virtual
	{
		OFFSET 0.000000 0.000000 0.000000
		CHANNELS 3 Xrotation Yrotation Zrotation
		JOINT Spine
		{
			OFFSET 0.000000 6.876099 0.125700
			CHANNELS 3 Xrotation Yrotation Zrotation
			JOINT Spine1
			{
				OFFSET 0.000000 5.730043 0.104720
				CHANNELS 3 Xrotation Yrotation Zrotation
				JOINT Spine1_split
				{
					OFFSET 0.000000 5.730043 0.104720
					CHANNELS 3 Xrotation Yrotation Zrotation
					JOINT Spine2
					{
						OFFSET 0.000000 5.730043 0.104720
						CHANNELS 3 Xrotation Yrotation Zrotation
						JOINT Neck_virtual
						{
							OFFSET 0.000000 0.000000 0.000000
							CHANNELS 3 Xrotation Yrotation Zrotation
							JOINT Neck
							{
								OFFSET 0.000000 10.314075 0.188496
								CHANNELS 3 Xrotation Yrotation Zrotation
								JOINT Head
								{
									OFFSET 0.000000 7.643700 -2.377400
									CHANNELS 3 Xrotation Yrotation Zrotation
									JOINT HeadTop_End
									{
										OFFSET 0.000000 43.788605 -13.619600
										CHANNELS 3 Xrotation Yrotation Zrotation
										End Site
										{
											OFFSET 0 0 0
										}
									}
								}
							}
						}
						JOINT LeftShoulder_virtual
						{
							OFFSET 0.000000 0.000000 0.000000
							CHANNELS 3 Xrotation Yrotation Zrotation
							JOINT LeftShoulder
							{
								OFFSET 2.196100 4.412489 0.087492
								CHANNELS 3 Xrotation Yrotation Zrotation
								JOINT LeftShoulder_split
								{
									OFFSET 2.196100 4.412489 0.087492
									CHANNELS 3 Xrotation Yrotation Zrotation
									JOINT LeftArm
									{
										OFFSET 8.771219 -2.981674 -0.026999
										CHANNELS 3 Xrotation Yrotation Zrotation
										JOINT LeftForeArm
										{
											OFFSET 8.512804 0.000000 -0.000000
											CHANNELS 3 Xrotation Yrotation Zrotation
											JOINT LeftHand
											{
												OFFSET 18.484802 0.000000 -0.000000
												CHANNELS 3 Xrotation Yrotation Zrotation
												End Site
												{
													OFFSET 0 0 0
												}
											}
										}
									}
								}
							}
						}
						JOINT RightShoulder_virtual
						{
							OFFSET 0.000000 0.000000 0.000000
							CHANNELS 3 Xrotation Yrotation Zrotation
							JOINT RightShoulder
							{
								OFFSET -2.196100 4.412496 0.070690
								CHANNELS 3 Xrotation Yrotation Zrotation
								JOINT RightShoulder_split
								{
									OFFSET -2.196100 4.412496 0.070690
									CHANNELS 3 Xrotation Yrotation Zrotation
									JOINT RightArm
									{
										OFFSET -8.771282 -2.981682 -0.094208
										CHANNELS 3 Xrotation Yrotation Zrotation
										JOINT RightForeArm
										{
											OFFSET -8.494598 0.000000 0.000000
											CHANNELS 3 Xrotation Yrotation Zrotation
											JOINT RightHand
											{
												OFFSET -18.483803 0.000000 0.000001
												CHANNELS 3 Xrotation Yrotation Zrotation
												End Site
												{
													OFFSET 0 0 0
												}
											}
										}
									}
								}
							}
						}
					}
				}
			}
		}
	}
}
MOTION
Frames: 10
Frame Time: 0.03333333
-0.502572 31.950838 -0.575743 0.000000 0.000000 0.000000 -6.556080 -24.380574 2.428683 -13.129476 11.820348 11.177803 32.371098 9.479009 2.159840 -6.738444 20.543358 -15.316452 -0.819577 0.430684 -0.783627 0.000000 0.000000 0.000000 -5.968221 -23.165039 2.768353 -5.988516 -34.292420 -15.711252 33.996259 9.217043 -9.480161 -29.092829 -21.425296 5.475396 -4.167661 0.081741 -1.154757 0.000000 0.000000 0.000000 -6.932920 -26.000983 1.589191 5.470993 -2.779017 -1.817661 1.387680 -2.780820 0.398390 0.793221 0.600472 0.068105 0.000000 0.000000 0.000000 1.013055 -2.451987 0.320043 2.045970 5.335138 -0.375835 0.031584 -18.892906 -3.754936 0.000000 0.000000 0.000000 1.438034 -2.595443 0.065546 -0.079588 -16.032769 -18.674027 -2.133105 -1.514092 -1.805849 16.258570 7.370892 -35.487102 171.259344 -82.359794 170.334577 0.000000 0.000000 0.000000 1.006567 -2.470726 0.344152 0.874006 15.152372 11.419884 3.008858 2.483356 -0.020866 3.372384 28.044502 43.184294 -172.059309 83.833592 171.626835 0.000000 0.000000 0.000000 
-0.845592 31.987440 -0.466188 0.000000 0.000000 0.000000 -6.574495 -26.030293 2.060262 -12.544454 11.525788 11.978176 32.664215 9.940658 2.280889 -6.341728 21.223127 -14.540790 -0.923015 0.543138 -1.708339 0.000000 0.000000 0.000000 -6.045800 -24.695848 2.381899 -4.437805 -34.171167 -14.340230 32.579924 9.678329 -9.243145 -29.596866 -20.848589 5.206485 -4.088197 0.036263 -1.143062 0.000000 0.000000 0.000000 -7.003877 -27.420699 1.267794 5.465988 -2.702301 -1.609328 1.370271 -2.660827 0.378406 0.751774 0.630493 0.071197 0.000000 0.000000 0.000000 0.989919 -2.342648 0.288499 2.005168 5.367005 -0.356906 0.065168 -18.937927 -3.460529 0.000000 0.000000 0.000000 1.403166 -2.482767 0.051902 -0.086875 -16.047784 -18.580700 -2.107057 -1.490196 -1.930434 15.489896 7.049594 -35.650442 171.180605 -82.765487 170.246099 0.000000 0.000000 0.000000 0.981270 -2.363960 0.299836 0.849905 15.192491 11.332985 3.086530 2.493822 0.029597 3.887409 27.366130 42.412603 -173.023226 83.038182 172.584837 0.000000 0.000000 0.000000 
-1.148411 32.026993 -0.362881 0.000000 0.000000 0.000000 -6.662849 -27.745501 1.671573 -12.278639 11.272749 12.667567 33.081690 10.124237 2.285291 -5.962417 21.425641 -13.776251 -1.182181 0.668303 -2.506857 0.000000 0.000000 0.000000 -6.198891 -26.264157 1.980952 -2.809787 -33.895971 -13.092998 31.265471 9.823105 -8.969498 -30.090340 -20.164875 4.921410 -3.859409 -0.023901 -1.158113 0.000000 0.000000 0.000000 -7.064229 -28.821926 0.956771 5.451309 -2.551931 -1.415745 1.339436 -2.521822 0.349566 0.708338 0.607082 0.060613 0.000000 0.000000 0.000000 0.981013 -2.209326 0.248073 1.960929 5.401234 -0.366969 0.061956 -18.829213 -3.205418 0.000000 0.000000 0.000000 1.362670 -2.346889 0.027823 -0.097642 -16.079022 -18.481568 -2.070277 -1.464644 -2.054224 14.754839 6.700120 -35.800290 171.286418 -83.155962 170.343989 0.000000 0.000000 0.000000 0.949342 -2.235917 0.252146 0.832352 15.263627 11.281621 3.095299 2.499424 0.057440 4.454006 26.530799 41.714742 -173.839461 82.195480 173.406905 0.000000 0.000000 0.000000 
-1.408059 32.074074 -0.265301 0.000000 0.000000 0.000000 -6.807621 -29.482358 1.280105 -12.388215 11.117257 13.112759 33.461742 10.016711 2.166640 -5.597244 21.002366 -13.039874 -1.672787 0.771098 -2.994808 0.000000 0.000000 0.000000 -6.389911 -27.855781 1.587422 -1.281872 -33.498827 -12.053963 30.093817 9.681896 -8.699753 -30.368425 -19.404147 4.779982 -3.685714 -0.079212 -1.208384 0.000000 0.000000 0.000000 -7.128300 -30.219673 0.674255 5.443366 -2.330922 -1.245940 1.304055 -2.373561 0.314667 0.676839 0.537778 0.029464 0.000000 0.000000 0.000000 0.989658 -2.060275 0.201726 1.908450 5.433640 -0.396271 0.024021 -18.567430 -2.993462 0.000000 0.000000 0.000000 1.321076 -2.197714 -0.004593 -0.109550 -16.116535 -18.389960 -2.017612 -1.426150 -2.160138 14.084962 6.336428 -35.930750 171.563478 -83.501071 170.616609 0.000000 0.000000 0.000000 0.917687 -2.095536 0.205531 0.821280 15.344338 11.261042 3.051626 2.488004 0.065046 5.037323 25.644574 41.100076 -174.540334 81.317282 174.125428 0.000000 0.000000 0.000000 
-1.621621 32.137634 -0.182869 0.000000 0.000000 0.000000 -6.954339 -31.173065 0.930332 -12.842134 11.097346 13.174216 33.686418 9.660542 1.944039 -5.381935 19.904981 -12.195990 -2.315320 0.824269 -3.090358 0.000000 0.000000 0.000000 -6.564214 -29.432105 1.244751 0.074016 -32.973735 -11.230482 29.027235 9.323432 -8.473452 -30.355922 -18.564114 4.813466 -3.577177 -0.114200 -1.262036 0.000000 0.000000 0.000000 -7.172468 -31.614371 0.425101 5.440708 -2.046029 -1.109025 1.271460 -2.220203 0.278653 0.664108 0.441383 0.004678 0.000000 0.000000 0.000000 1.013010 -1.904352 0.153231 1.852782 5.468968 -0.432020 -0.036421 -18.167366 -2.812173 0.000000 0.000000 0.000000 1.288330 -2.041690 -0.041222 -0.120761 -16.141414 -18.316865 -1.962853 -1.385510 -2.252578 13.504526 5.965754 -36.035412 171.952867 -83.778206 171.008484 0.000000 0.000000 0.000000 0.886969 -1.950533 0.162261 0.815555 15.412216 11.267801 2.972616 2.452932 0.051660 5.593452 24.805049 40.582672 -175.123428 80.458201 174.743683 0.000000 0.000000 0.000000 
-1.799832 32.219852 -0.101774 0.000000 0.000000 0.000000 -7.065951 -32.817717 0.645907 -13.551891 11.238520 12.795452 33.645949 9.121494 1.637989 -5.381725 18.146940 -11.214923 -2.863436 0.807251 -2.814013 0.000000 0.000000 0.000000 -6.672329 -30.955964 0.981868 1.244994 -32.294449 -10.587601 27.945429 8.753826 -8.325344 -30.136420 -17.645449 4.918190 -3.487412 -0.132638 -1.271963 0.000000 0.000000 0.000000 -7.214420 -32.995503 0.206613 5.444066 -1.708671 -1.011246 1.245547 -2.064879 0.244373 0.649437 0.340085 -0.014307 0.000000 0.000000 0.000000 1.046912 -1.746403 0.104554 1.791870 5.496344 -0.461542 -0.099867 -17.655610 -2.642370 0.000000 0.000000 0.000000 1.267078 -1.884108 -0.078455 -0.129447 -16.140990 -18.270988 -1.895270 -1.347431 -2.317467 13.022738 5.583252 -36.112317 172.310961 -83.976985 171.378776 0.000000 0.000000 0.000000 0.859154 -1.804807 0.125209 0.815618 15.451575 11.297999 2.873748 2.403129 0.016120 6.071441 24.080308 40.165225 -175.582375 79.691717 175.255441 0.000000 0.000000 0.000000 
-1.953682 32.319500 -0.021961 0.000000 0.000000 0.000000 -7.083663 -34.365072 0.478388 -14.377507 11.506252 12.014734 33.255406 8.400486 1.313097 -5.436133 15.759924 -10.260399 -3.202308 0.710790 -2.236117 0.000000 0.000000 0.000000 -6.674606 -32.392152 0.833135 2.289866 -31.439962 -10.069803 26.822129 7.957842 -8.261053 -29.749384 -16.689518 4.987384 -3.417622 -0.143194 -1.219940 0.000000 0.000000 0.000000 -7.230569 -34.349749 0.034098 5.442821 -1.336666 -0.965907 1.231969 -1.905443 0.210328 0.640931 0.239989 -0.003469 0.000000 0.000000 0.000000 1.082640 -1.586689 0.056446 1.721849 5.506569 -0.474519 -0.149758 -17.073513 -2.463859 0.000000 0.000000 0.000000 1.256634 -1.724019 -0.117185 -0.136592 -16.112667 -18.256908 -1.820127 -1.318547 -2.367167 12.631572 5.185284 -36.164042 172.501495 -84.116068 171.595389 0.000000 0.000000 0.000000 0.842007 -1.656062 0.091018 0.824485 15.459269 11.341983 2.783292 2.321370 -0.029948 6.436918 23.504165 39.845196 -175.933146 79.088475 175.672138 0.000000 0.000000 0.000000 
-2.090061 32.429153 0.045029 0.000000 0.000000 0.000000 -6.999272 -35.805532 0.437289 -15.141580 11.781413 10.904826 32.466218 7.433348 1.015761 -5.254813 12.857258 -9.678046 -3.471311 0.550353 -1.363059 0.000000 0.000000 0.000000 -6.585708 -33.739048 0.800526 3.251458 -30.416219 -9.666101 25.655090 6.972731 -8.268070 -29.174023 -15.728771 5.031755 -3.389383 -0.150463 -1.127729 0.000000 0.000000 0.000000 -7.216968 -35.627814 -0.093869 5.432392 -0.950092 -0.977669 1.227951 -1.743055 0.177174 0.615211 0.155043 0.024453 0.000000 0.000000 0.000000 1.112167 -1.425021 0.010193 1.641265 5.501279 -0.467076 -0.168663 -16.452351 -2.262774 0.000000 0.000000 0.000000 1.254005 -1.561436 -0.157182 -0.142923 -16.059457 -18.268750 -1.751378 -1.296211 -2.414092 12.321592 4.758210 -36.195969 172.417962 -84.225795 171.552331 0.000000 0.000000 0.000000 0.830447 -1.502540 0.056257 0.840342 15.438447 11.392345 2.697047 2.210650 -0.084345 6.661212 23.076996 39.620517 -176.176492 78.687529 175.988512 0.000000 0.000000 0.000000 
-2.214087 32.542053 0.109974 0.000000 0.000000 0.000000 -6.829580 -37.093794 0.499821 -15.654524 11.973935 9.597070 31.244991 6.291706 0.774490 -4.734366 9.667541 -9.504721 -3.796967 0.345320 -0.302765 0.000000 0.000000 0.000000 -6.441995 -34.984389 0.855344 4.148590 -29.242669 -9.376680 24.477813 5.875597 -8.332914 -28.420989 -14.794683 5.128738 -3.369087 -0.153088 -1.027349 0.000000 0.000000 0.000000 -7.171880 -36.781019 -0.171581 5.412621 -0.571082 -1.050784 1.231877 -1.580476 0.144058 0.600485 0.090574 0.057877 0.000000 0.000000 0.000000 1.130929 -1.262022 -0.034657 1.542278 5.477127 -0.444030 -0.137143 -15.826925 -2.032114 0.000000 0.000000 0.000000 1.252569 -1.397353 -0.197729 -0.149074 -15.996083 -18.295070 -1.696685 -1.284227 -2.458019 12.075191 4.300097 -36.209046 172.052370 -84.340713 171.240970 0.000000 0.000000 0.000000 0.828379 -1.343865 0.019490 0.860617 15.394159 11.435211 2.619241 2.076596 -0.133243 6.750672 22.773676 39.477028 -176.344378 78.476032 176.226681 0.000000 0.000000 0.000000 
-2.314548 32.650948 0.151697 0.000000 0.000000 0.000000 -6.627854 -38.207317 0.618194 -15.846741 12.099804 8.270267 29.681694 5.158527 0.577830 -3.902736 6.541494 -9.564836 -4.046994 0.146544 0.712316 0.000000 0.000000 0.000000 -6.284519 -36.121811 0.950253 5.029758 -27.968754 -9.182523 23.259694 4.729618 -8.431404 -27.551066 -13.890570 5.304095 -3.312542 -0.141014 -0.950394 0.000000 0.000000 0.000000 -7.108092 -37.802966 -0.216394 5.390111 -0.216949 -1.171154 1.242695 -1.423180 0.112275 0.618903 0.040375 0.107090 0.000000 0.000000 0.000000 1.138011 -1.100668 -0.075334 1.428064 5.445557 -0.407166 -0.032022 -15.214938 -1.770493 0.000000 0.000000 0.000000 1.251154 -1.235144 -0.237149 -0.154089 -15.934206 -18.324522 -1.656779 -1.277860 -2.506218 11.892313 3.811623 -36.208619 171.484275 -84.481640 170.737230 0.000000 0.000000 0.000000 0.832954 -1.183063 -0.018695 0.879320 15.335904 11.468604 2.541769 1.929631 -0.177871 6.739168 22.560981 39.402473 -176.447009 78.410763 176.391930 0.000000 0.000000 0.000000 
